<?xml version="1.0" encoding="UTF-8" standalone="no"?>
<!-- Created with Inkscape (http://www.inkscape.org/) -->

<svg
   xmlns:dc="http://purl.org/dc/elements/1.1/"
   xmlns:cc="http://creativecommons.org/ns#"
   xmlns:rdf="http://www.w3.org/1999/02/22-rdf-syntax-ns#"
   xmlns:svg="http://www.w3.org/2000/svg"
   xmlns="http://www.w3.org/2000/svg"
   xmlns:sodipodi="http://sodipodi.sourceforge.net/DTD/sodipodi-0.dtd"
   xmlns:inkscape="http://www.inkscape.org/namespaces/inkscape"
   id="svg2"
   version="1.1"
   inkscape:version="0.48.5 r10040"
   width="474.18573"
   height="328.98483"
   xml:space="preserve"
   sodipodi:docname="volab.svg"
   inkscape:export-filename="/home/jeremie/jdhp/medias/images/volab.png"
   inkscape:export-xdpi="8.5409575"
   inkscape:export-ydpi="8.5409575"><metadata
     id="metadata8"><rdf:RDF><cc:Work
         rdf:about=""><dc:format>image/svg+xml</dc:format><dc:type
           rdf:resource="http://purl.org/dc/dcmitype/StillImage" /><dc:title></dc:title></cc:Work></rdf:RDF></metadata><defs
     id="defs6"><clipPath
       clipPathUnits="userSpaceOnUse"
       id="clipPath16"><path
         d="M 0,202 407,202 407,0 0,0 0,202 z"
         id="path18"
         inkscape:connector-curvature="0" /></clipPath></defs><sodipodi:namedview
     pagecolor="#ffffff"
     bordercolor="#666666"
     borderopacity="1"
     objecttolerance="10"
     gridtolerance="10"
     guidetolerance="10"
     inkscape:pageopacity="0"
     inkscape:pageshadow="2"
     inkscape:window-width="1920"
     inkscape:window-height="1058"
     id="namedview4"
     showgrid="false"
     inkscape:zoom="1.1869665"
     inkscape:cx="226.40107"
     inkscape:cy="208.44248"
     inkscape:window-x="1920"
     inkscape:window-y="0"
     inkscape:window-maximized="1"
     inkscape:current-layer="g10"
     fit-margin-top="0"
     fit-margin-left="0"
     fit-margin-right="0"
     fit-margin-bottom="0" /><g
     id="g10"
     inkscape:groupmode="layer"
     inkscape:label="vorobotics_final [Converti]"
     transform="matrix(1.25,0,0,-1.25,-17.282134,236.06012)"><g
       id="g12"
       style="fill:#005184;fill-opacity:1"
       transform="translate(0.62447702,0)"><g
         id="g14"
         clip-path="url(#clipPath16)"
         style="fill:#005184;fill-opacity:1"><g
           id="g20"
           transform="translate(354.167,126.2607)"
           style="fill:#005184;fill-opacity:1"><path
             d="m 0,0 c 6.003,0 10.87,-4.852 10.87,-10.836 0,-5.985 -4.867,-10.837 -10.87,-10.837 -6.003,0 -10.869,4.852 -10.869,10.837 C -10.869,-4.852 -6.003,0 0,0 m 0,24.117 c 6.003,0 10.87,-4.852 10.87,-10.837 C 10.87,7.295 6.003,2.443 0,2.443 c -6.003,0 -10.869,4.852 -10.869,10.837 0,5.985 4.866,10.837 10.869,10.837 m -23.313,13.42 c 0.098,0.002 0.195,0.014 0.294,0.014 6.004,0 10.871,-4.851 10.871,-10.836 0,-5.985 -4.867,-10.837 -10.871,-10.837 -0.099,0 -0.196,0.013 -0.294,0.016 l 0,-4.401 c 0.089,0 0.179,0.008 0.268,0.006 4.85,0.003 8.581,-3.726 8.568,-8.563 -0.012,-4.75 -3.914,-8.689 -8.656,-8.543 -0.061,0.002 -0.12,0.011 -0.18,0.014 l 0,-5.259 c 0.098,0.003 0.195,0.016 0.294,0.016 6.004,0 10.871,-4.852 10.871,-10.837 0,-1.679 -0.395,-3.262 -1.078,-4.681 L -2.497,-40.87 c -0.253,1.802 -0.509,3.632 -0.77,5.492 1.432,0.828 2.75,1.592 4.126,2.387 1.714,-1.345 3.331,-2.613 5.056,-3.967 2.749,2.487 5.41,4.895 8.078,7.309 -0.97,2.054 -2.426,3.65 -3.287,5.572 1.012,1.392 1.943,2.673 2.917,4.013 2.092,-0.521 4.135,-1.031 6.262,-1.561 1.52,3.41 2.981,6.681 4.372,10.075 -1.817,1.202 -3.489,2.31 -5.262,3.484 0.331,1.728 0.647,3.367 0.965,5.026 2.105,0.388 4.071,0.75 5.964,1.099 0.326,1.758 0.252,9.574 -0.12,10.991 -1.924,0.332 -3.94,0.681 -5.949,1.029 -0.378,1.7 -0.722,3.243 -1.084,4.871 1.751,1.205 3.441,2.367 5.255,3.615 -1.568,3.357 -2.952,6.66 -4.652,9.911 -2.075,-0.53 -4.02,-1.026 -6.06,-1.546 -1.044,1.394 -2.051,2.737 -3.043,4.062 0.955,1.95 2.381,3.505 3.183,5.529 -2.784,2.415 -5.432,4.835 -8.263,7.077 -1.698,-1.367 -3.262,-2.624 -4.868,-3.915 -1.545,0.87 -3.013,1.697 -4.524,2.548 0.25,2.066 0.488,4.04 0.737,6.101 -3.58,1.064 -6.981,2.074 -10.496,3.118 -0.978,-1.889 -1.894,-3.66 -2.811,-5.433 -1.295,0.145 -2.441,0.274 -3.659,0.41 -0.541,1.994 -1.062,3.917 -1.613,5.948 -1.063,-0.113 -2.114,-0.204 -3.159,-0.29 1.197,-2.408 1.889,-5.109 1.889,-7.975 l 0,-6.573 z"
             style="fill:#005184;fill-opacity:1;fill-rule:nonzero;stroke:none"
             id="path22"
             inkscape:connector-curvature="0" /></g><g
           id="g24"
           transform="translate(324.0449,97.4199)"
           style="fill:#005184;fill-opacity:1"><path
             d="m 0,0 c -1.992,-1.464 -2.422,-4.276 -0.959,-6.268 0.855,-1.163 2.173,-1.829 3.619,-1.829 0.375,0 0.739,0.06 1.096,0.15 l 0,8.679 C 3.399,0.821 3.028,0.87 2.648,0.87 1.69,0.87 0.774,0.569 0,0"
             style="fill:#005184;fill-opacity:1;fill-rule:nonzero;stroke:none"
             id="path26"
             inkscape:connector-curvature="0" /></g><g
           id="g28"
           transform="translate(314.7568,157.1592)"
           style="fill:#005184;fill-opacity:1"><path
             d="m 0,0 c 4.042,0 7.318,-3.276 7.318,-7.318 0,-4.041 -3.276,-7.318 -7.318,-7.318 -4.041,0 -7.317,3.277 -7.317,7.318 C -7.317,-3.276 -4.041,0 0,0 m 0,19.965 c 4.042,0 7.318,-3.277 7.318,-7.318 C 7.318,8.605 4.042,5.329 0,5.329 c -4.041,0 -7.317,3.276 -7.317,7.318 0,4.041 3.276,7.318 7.317,7.318 m -9.823,-53.923 c 1.262,0.927 2.635,1.643 4.074,2.157 -0.98,1.245 -1.568,2.811 -1.568,4.518 0,4.042 3.276,7.318 7.317,7.318 4.042,0 7.318,-3.276 7.318,-7.318 0,-1.83 -0.676,-3.499 -1.787,-4.782 2.695,-1.094 5.087,-2.897 6.844,-5.289 l 0.669,-0.908 0,51.239 C 13.044,20.18 7.204,26.02 0,26.02 c -7.203,0 -13.044,-5.84 -13.044,-13.043 l 0,-50.113 c 0.898,1.18 1.968,2.257 3.221,3.178"
             style="fill:#005184;fill-opacity:1;fill-rule:nonzero;stroke:none"
             id="path30"
             inkscape:connector-curvature="0" /></g><g
           id="g32"
           transform="translate(314.7568,62.6641)"
           style="fill:#005184;fill-opacity:1"><path
             d="m 0,0 c -4.041,0 -7.317,3.276 -7.317,7.318 0,4.041 3.276,7.318 7.317,7.318 4.042,0 7.318,-3.277 7.318,-7.318 C 7.318,3.276 4.042,0 0,0 m 0,-19.965 c -4.041,0 -7.317,3.277 -7.317,7.319 0,4.041 3.276,7.317 7.317,7.317 4.042,0 7.318,-3.276 7.318,-7.317 0,-4.042 -3.276,-7.319 -7.318,-7.319 M 0,-39.93 c -4.041,0 -7.317,3.277 -7.317,7.319 0,4.041 3.276,7.317 7.317,7.317 4.042,0 7.318,-3.276 7.318,-7.317 0,-4.042 -3.276,-7.319 -7.318,-7.319 M 0.31,19.98 C 0.206,19.977 0.104,19.965 0,19.965 c -4.041,0 -7.317,3.276 -7.317,7.318 0,0.865 0.157,1.692 0.433,2.462 l -6.16,8.359 0,-70.462 c 0,-7.205 5.841,-13.044 13.044,-13.044 7.204,0 13.044,5.839 13.044,13.044 l 0,35.056 L 0.31,19.98 z"
             style="fill:#005184;fill-opacity:1;fill-rule:nonzero;stroke:none"
             id="path34"
             inkscape:connector-curvature="0" /></g><g
           id="g36"
           transform="translate(317.4434,105.3799)"
           style="fill:#005184;fill-opacity:1"><path
             d="M 0,0 -5.372,0 -8.059,4.652 -5.372,9.304 0,9.304 2.686,4.652 0,0 z m -2.687,12.667 c -4.426,0 -8.014,-3.588 -8.014,-8.015 0,-4.426 3.588,-8.015 8.014,-8.015 4.427,0 8.016,3.589 8.016,8.015 0,4.427 -3.589,8.015 -8.016,8.015"
             style="fill:#005184;fill-opacity:1;fill-rule:nonzero;stroke:none"
             id="path38"
             inkscape:connector-curvature="0" /></g><g
           id="g40"
           transform="translate(314.7568,28.4033)"
           style="fill:#005184;fill-opacity:1"><path
             d="m 0,0 c -0.909,0 -1.648,0.74 -1.648,1.649 0,0.91 0.739,1.649 1.648,1.649 0.909,0 1.649,-0.739 1.649,-1.649 C 1.649,0.74 0.909,0 0,0 m 0,3.865 c -1.222,0 -2.216,-0.994 -2.216,-2.216 0,-1.221 0.994,-2.216 2.216,-2.216 1.222,0 2.217,0.995 2.217,2.216 0,1.222 -0.995,2.216 -2.217,2.216"
             style="fill:#005184;fill-opacity:1;fill-rule:nonzero;stroke:none"
             id="path42"
             inkscape:connector-curvature="0" /></g><g
           id="g44"
           transform="translate(374.959,28.1221)"
           style="fill:#005184;fill-opacity:1"><path
             d="m 0,0 c -0.289,-0.213 -0.616,-0.321 -0.971,-0.321 -0.252,0 -0.888,0.066 -1.334,0.673 -0.539,0.732 -0.381,1.767 0.352,2.304 0.289,0.213 0.616,0.322 0.971,0.322 0.252,0 0.888,-0.067 1.334,-0.672 C 0.89,1.572 0.732,0.538 0,0 M -0.982,3.545 C -1.461,3.545 -1.9,3.399 -2.289,3.112 -2.765,2.764 -3.076,2.249 -3.166,1.663 c -0.09,-0.586 0.054,-1.171 0.404,-1.647 0.6,-0.816 1.452,-0.905 1.791,-0.905 0.479,0 0.918,0.146 1.307,0.433 0.983,0.722 1.195,2.111 0.473,3.097 -0.6,0.815 -1.453,0.904 -1.791,0.904"
             style="fill:#005184;fill-opacity:1;fill-rule:nonzero;stroke:none"
             id="path46"
             inkscape:connector-curvature="0" /></g><g
           id="g48"
           transform="translate(314.7568,48.3682)"
           style="fill:#005184;fill-opacity:1"><path
             d="m 0,0 c -0.909,0 -1.648,0.74 -1.648,1.649 0,0.91 0.739,1.649 1.648,1.649 0.909,0 1.649,-0.739 1.649,-1.649 C 1.649,0.74 0.909,0 0,0 m 0,3.865 c -1.222,0 -2.216,-0.994 -2.216,-2.216 0,-1.221 0.994,-2.216 2.216,-2.216 1.222,0 2.217,0.995 2.217,2.216 0,1.222 -0.995,2.216 -2.217,2.216"
             style="fill:#005184;fill-opacity:1;fill-rule:nonzero;stroke:none"
             id="path50"
             inkscape:connector-curvature="0" /></g><g
           id="g52"
           transform="translate(354.167,110.2568)"
           style="fill:#005184;fill-opacity:1"><path
             d="m 0,0 c -2.867,0 -5.2,2.318 -5.2,5.167 0,2.85 2.333,5.168 5.2,5.168 2.868,0 5.201,-2.318 5.201,-5.168 C 5.201,2.318 2.868,0 0,0 m 5.769,5.167 c 0,3.162 -2.588,5.735 -5.769,5.735 -3.18,0 -5.768,-2.573 -5.768,-5.735 0,-3.162 2.588,-5.734 5.768,-5.734 3.181,0 5.769,2.572 5.769,5.734"
             style="fill:#005184;fill-opacity:1;fill-rule:nonzero;stroke:none"
             id="path54"
             inkscape:connector-curvature="0" /></g><g
           id="g56"
           transform="translate(314.7568,168.1572)"
           style="fill:#005184;fill-opacity:1"><path
             d="m 0,0 c -0.909,0 -1.648,0.739 -1.648,1.648 0,0.91 0.739,1.65 1.648,1.65 0.909,0 1.649,-0.74 1.649,-1.65 C 1.649,0.739 0.909,0 0,0 m 0,3.865 c -1.222,0 -2.216,-0.995 -2.216,-2.217 0,-1.221 0.994,-2.215 2.216,-2.215 1.222,0 2.217,0.994 2.217,2.215 C 2.217,2.87 1.222,3.865 0,3.865"
             style="fill:#005184;fill-opacity:1;fill-rule:nonzero;stroke:none"
             id="path58"
             inkscape:connector-curvature="0" /></g><g
           id="g60"
           transform="translate(363.791,45.29)"
           style="fill:#005184;fill-opacity:1"><path
             d="M 0,0 C -0.047,-0.309 -0.198,-0.745 -0.653,-1.079 -0.942,-1.292 -1.27,-1.4 -1.624,-1.4 c -0.252,0 -0.888,0.065 -1.334,0.673 -0.334,0.456 -0.349,0.917 -0.301,1.225 0.047,0.308 0.198,0.745 0.654,1.079 0.289,0.213 0.616,0.321 0.97,0.321 0.252,0 0.888,-0.065 1.334,-0.673 C 0.033,0.771 0.047,0.308 0,0 m -1.635,2.466 c -0.478,0 -0.918,-0.146 -1.306,-0.433 -0.612,-0.448 -0.815,-1.036 -0.878,-1.45 -0.064,-0.411 -0.046,-1.031 0.404,-1.645 0.6,-0.817 1.452,-0.906 1.791,-0.906 0.478,0 0.918,0.146 1.307,0.433 0.611,0.448 0.815,1.036 0.878,1.45 0.063,0.414 0.043,1.035 -0.405,1.646 -0.599,0.816 -1.452,0.905 -1.791,0.905"
             style="fill:#005184;fill-opacity:1;fill-rule:nonzero;stroke:none"
             id="path62"
             inkscape:connector-curvature="0" /></g><g
           id="g64"
           transform="translate(391.7705,26.9111)"
           style="fill:#005184;fill-opacity:1"><path
             d="m 0,0 c -0.732,-4.791 -3.288,-9.011 -7.194,-11.881 -3.138,-2.306 -6.849,-3.523 -10.734,-3.523 -5.758,10e-4 -11.228,2.768 -14.633,7.403 l -26.307,35.705 0,-24.31 c 0,-10.005 -8.14,-18.145 -18.146,-18.145 -10.005,0 -18.144,8.14 -18.144,18.145 l 0,72.669 0,2.395 0,64.767 c 0,10.004 8.139,18.144 18.144,18.144 4.528,0 8.875,-1.702 12.243,-4.793 l 0.184,-0.167 1.363,0.112 c 1.004,0.083 2.015,0.168 3.036,0.278 l 4.328,0.46 0.651,-2.402 1.053,2.036 18.672,-5.547 -0.58,-4.787 3.627,2.917 3.193,-2.529 c 2.176,-1.723 4.24,-3.54 6.237,-5.296 l 0.085,-0.075 c 0.7,-0.616 1.403,-1.233 2.115,-1.851 l 2.734,-2.371 -1.451,-3.653 -0.451,-1.055 4.396,1.121 1.871,-3.578 c 1.223,-2.335 2.284,-4.685 3.31,-6.956 l 0.061,-0.135 c 0.453,-1.003 0.909,-2.01 1.382,-3.023 l 1.83,-3.915 -3.94,-2.71 3.367,-0.581 0.833,-3.174 c 0.636,-2.417 0.605,-11.045 0.202,-13.217 l -0.64,-3.452 -3.674,-0.676 3.94,-2.608 -1.588,-3.877 c -1.401,-3.42 -2.828,-6.618 -4.338,-10.004 l -1.838,-4.123 -4.68,1.168 2.1,-4.45 -14.074,-12.733 -3.784,2.968 -0.806,-0.782 32.727,-44.417 C -0.446,9.583 0.732,4.791 0,0 m -2.862,13.828 -32.727,44.417 4.16,-3.264 14.741,13.336 -1.77,3.749 3.981,-0.993 2.032,4.558 c 1.517,3.402 2.95,6.616 4.344,10.019 l 1.765,4.308 -3.155,2.089 2.675,0.492 0.711,3.835 c 0.42,2.27 0.454,10.934 -0.211,13.465 l -0.926,3.527 -2.355,0.406 3.189,2.193 -2.033,4.35 c -0.493,1.054 -0.966,2.103 -1.438,3.146 -1.03,2.28 -2.096,4.639 -3.327,6.991 l -2.078,3.975 -3.719,-0.948 c 0.043,0.1 0.084,0.201 0.124,0.303 l 1.481,3.738 -3.037,2.632 c -0.74,0.643 -1.47,1.286 -2.198,1.925 -2.004,1.763 -4.077,3.586 -6.26,5.315 l -3.546,2.809 -2.895,-2.328 0.47,3.88 -19.58,5.816 -0.599,-1.157 -0.396,1.462 -4.808,-0.512 c -1.018,-0.108 -2.024,-0.194 -3.024,-0.276 l -1.116,-0.092 c -3.332,3.058 -7.759,4.943 -12.627,4.943 -10.318,0 -18.712,-8.394 -18.712,-18.712 l 0,-52.116 0,-12.661 0,-0.551 0,-1.6 0,-72.903 c 0,-10.319 8.394,-18.712 18.712,-18.712 10.319,0 18.713,8.393 18.713,18.712 l 0,22.585 25.283,-34.316 c 3.512,-4.78 9.154,-7.634 15.09,-7.635 4.006,0 7.834,1.257 11.07,3.634 4.028,2.96 6.663,7.311 7.419,12.252 0.754,4.94 -0.459,9.88 -3.423,13.914"
             style="fill:#005184;fill-opacity:1;fill-rule:nonzero;stroke:none"
             id="path66"
             inkscape:connector-curvature="0" /></g><g
           id="g68"
           transform="translate(378.3154,23.5527)"
           style="fill:#005184;fill-opacity:1"><path
             d="m 0,0 c -3.257,-2.393 -7.837,-1.692 -10.23,1.564 -2.394,3.257 -1.693,7.837 1.564,10.231 3.257,2.393 7.837,1.692 10.23,-1.565 C 3.957,6.974 3.257,2.393 0,0 m -22.051,17.653 c -2.393,3.257 -1.693,7.838 1.565,10.231 3.257,2.392 7.837,1.692 10.229,-1.565 2.394,-3.256 1.693,-7.837 -1.564,-10.23 -3.257,-2.393 -7.837,-1.693 -10.23,1.564 m -11.821,16.089 c -2.393,3.258 -1.693,7.838 1.564,10.231 3.257,2.393 7.837,1.692 10.231,-1.565 2.392,-3.257 1.691,-7.837 -1.565,-10.229 -3.257,-2.394 -7.837,-1.694 -10.23,1.563 m -11.821,16.09 c -2.393,3.257 -1.693,7.837 1.564,10.23 3.257,2.393 7.838,1.692 10.231,-1.565 2.392,-3.257 1.692,-7.837 -1.565,-10.229 -3.257,-2.394 -7.837,-1.693 -10.23,1.564 m -11.821,16.089 c -2.393,3.257 -1.692,7.837 1.565,10.23 3.257,2.393 7.837,1.692 10.229,-1.564 2.394,-3.258 1.694,-7.838 -1.564,-10.231 -3.257,-2.393 -7.837,-1.692 -10.23,1.565 m -15.631,20.562 c 0,5.294 4.292,9.586 9.586,9.586 5.294,0 9.586,-4.292 9.586,-9.586 0,-5.294 -4.292,-9.586 -9.586,-9.586 -5.294,0 -9.586,4.292 -9.586,9.586 M 6.028,13.824 -53.468,94.576 c -4.265,5.805 -12.428,7.053 -18.234,2.788 -5.806,-4.265 -7.054,-12.429 -2.788,-18.234 l 59.496,-80.752 c 4.265,-5.805 12.429,-7.054 18.234,-2.788 5.806,4.264 7.054,12.429 2.788,18.234"
             style="fill:#005184;fill-opacity:1;fill-rule:nonzero;stroke:none"
             id="path70"
             inkscape:connector-curvature="0" /></g><g
           id="g72"
           transform="translate(93.6362,25.4414)"
           style="fill:#005184;fill-opacity:1"><path
             d="M 0,0 -5.372,0 -8.058,4.651 -5.372,9.304 0,9.304 2.686,4.651 0,0 z m -2.686,12.667 c -4.427,0 -8.015,-3.589 -8.015,-8.016 0,-4.426 3.588,-8.014 8.015,-8.014 4.427,0 8.015,3.588 8.015,8.014 0,4.427 -3.588,8.016 -8.015,8.016"
             style="fill:#005184;fill-opacity:1;fill-rule:nonzero;stroke:none"
             id="path74"
             inkscape:connector-curvature="0" /></g><g
           id="g76"
           transform="translate(91.4155,76.8535)"
           style="fill:#005184;fill-opacity:1"><path
             d="m 0,0 c 4.042,0 7.318,-3.276 7.318,-7.317 0,-4.042 -3.276,-7.319 -7.318,-7.319 -4.042,0 -7.318,3.277 -7.318,7.319 C -7.318,-3.276 -4.042,0 0,0 m 0,19.965 c 4.042,0 7.318,-3.277 7.318,-7.318 C 7.318,8.605 4.042,5.329 0,5.329 c -4.042,0 -7.318,3.276 -7.318,7.318 0,4.041 3.276,7.318 7.318,7.318 M 0,39.93 c 4.042,0 7.318,-3.277 7.318,-7.318 0,-4.042 -3.276,-7.318 -7.318,-7.318 -4.042,0 -7.318,3.276 -7.318,7.318 0,4.041 3.276,7.318 7.318,7.318 m 0,19.965 c 4.042,0 7.318,-3.277 7.318,-7.318 0,-4.042 -3.276,-7.318 -7.318,-7.318 -4.042,0 -7.318,3.276 -7.318,7.318 0,4.041 3.276,7.318 7.318,7.318 m 0,19.964 c 4.042,0 7.318,-3.276 7.318,-7.317 0,-4.042 -3.276,-7.318 -7.318,-7.318 -4.042,0 -7.318,3.276 -7.318,7.318 0,4.041 3.276,7.317 7.318,7.317 m 0,19.965 c 4.042,0 7.318,-3.276 7.318,-7.318 0,-4.041 -3.276,-7.318 -7.318,-7.318 -4.042,0 -7.318,3.277 -7.318,7.318 0,4.042 3.276,7.318 7.318,7.318 M -0.272,-19.979 c 0.091,0.004 0.18,0.014 0.272,0.014 4.042,0 7.318,-3.276 7.318,-7.317 0,-0.853 -0.153,-1.666 -0.421,-2.427 l 5.896,-8.001 c 0.091,-0.124 0.164,-0.255 0.25,-0.38 l 0,130.926 c 0,7.204 -5.839,13.043 -13.043,13.043 -7.204,0 -13.043,-5.839 -13.043,-13.043 l 0,-95.481 12.771,-17.334 z"
             style="fill:#005184;fill-opacity:1;fill-rule:nonzero;stroke:none"
             id="path78"
             inkscape:connector-curvature="0" /></g><g
           id="g80"
           transform="translate(79.0464,50.8213)"
           style="fill:#005184;fill-opacity:1"><path
             d="m 0,0 c -0.228,0 -0.453,-0.02 -0.674,-0.054 l 0,-8.855 c 0.225,-0.034 0.453,-0.058 0.686,-0.058 0.958,0 1.874,0.301 2.648,0.87 1.992,1.464 2.423,4.276 0.959,6.268 C 2.765,-0.666 1.445,0 0,0"
             style="fill:#005184;fill-opacity:1;fill-rule:nonzero;stroke:none"
             id="path82"
             inkscape:connector-curvature="0" /></g><g
           id="g84"
           transform="translate(57.0396,78.2656)"
           style="fill:#005184;fill-opacity:1"><path
             d="m 0,0 c -0.047,-0.308 -0.198,-0.744 -0.653,-1.078 -0.289,-0.213 -0.617,-0.321 -0.971,-0.321 -0.252,0 -0.888,0.065 -1.334,0.673 -0.334,0.455 -0.348,0.917 -0.301,1.225 0.047,0.308 0.199,0.745 0.654,1.079 0.289,0.213 0.616,0.321 0.97,0.321 0.252,0 0.888,-0.065 1.334,-0.672 C 0.033,0.771 0.048,0.309 0,0 M -1.635,2.523 C -2.125,2.523 -2.576,2.374 -2.976,2.08 -3.603,1.619 -3.811,1.017 -3.875,0.593 -3.94,0.168 -3.921,-0.47 -3.46,-1.095 c 0.614,-0.838 1.488,-0.928 1.836,-0.928 0.49,0 0.941,0.149 1.341,0.443 0.626,0.46 0.835,1.061 0.899,1.486 0.066,0.422 0.047,1.06 -0.414,1.689 -0.615,0.838 -1.489,0.928 -1.837,0.928"
             style="fill:#005184;fill-opacity:1;fill-rule:nonzero;stroke:none"
             id="path86"
             inkscape:connector-curvature="0" /></g><g
           id="g88"
           transform="translate(44.5659,93.2764)"
           style="fill:#005184;fill-opacity:1"><path
             d="m 0,0 c -0.289,-0.213 -0.616,-0.321 -0.971,-0.321 -0.253,0 -0.888,0.065 -1.334,0.673 -0.539,0.732 -0.381,1.767 0.352,2.304 0.289,0.213 0.616,0.322 0.971,0.322 0.252,0 0.888,-0.067 1.334,-0.673 C 0.891,1.572 0.732,0.537 0,0 m -0.982,3.602 c -0.491,0 -0.942,-0.15 -1.341,-0.444 C -2.811,2.801 -3.13,2.272 -3.222,1.672 -3.314,1.07 -3.167,0.471 -2.807,-0.019 c 0.614,-0.835 1.489,-0.926 1.836,-0.926 0.491,0 0.942,0.149 1.341,0.443 0.487,0.357 0.807,0.886 0.899,1.486 C 1.361,1.586 1.214,2.186 0.854,2.675 0.239,3.511 -0.635,3.602 -0.982,3.602"
             style="fill:#005184;fill-opacity:1;fill-rule:nonzero;stroke:none"
             id="path90"
             inkscape:connector-curvature="0" /></g><g
           id="g92"
           transform="translate(109.5034,29.0332)"
           style="fill:#005184;fill-opacity:1"><path
             d="m 0,0 -0.052,-0.446 c -0.346,-5.366 -3.017,-10.26 -7.327,-13.426 -3.128,-2.299 -6.827,-3.513 -10.698,-3.513 -5.741,0.001 -11.195,2.76 -14.589,7.38 L -92.159,70.74 c -2.863,3.898 -4.038,8.675 -3.308,13.45 0.731,4.778 3.278,8.984 7.171,11.843 3.127,2.299 6.827,3.513 10.7,3.513 5.74,0 11.193,-2.758 14.587,-7.379 l 26.832,-36.416 0,84.905 c 0,9.974 8.114,18.088 18.089,18.088 C -8.114,158.744 0,150.63 0,140.656 L 0,0 z m -18.088,159.368 c -10.318,0 -18.713,-8.393 -18.713,-18.712 l 0,-83.008 -25.705,34.888 c -3.512,4.78 -9.152,7.634 -15.09,7.634 -4.007,0 -7.834,-1.256 -11.069,-3.634 -4.028,-2.959 -6.662,-7.309 -7.418,-12.251 -0.756,-4.94 0.458,-9.881 3.422,-13.915 l 59.492,-80.744 c 3.512,-4.78 9.153,-7.634 15.091,-7.635 l 10e-4,0 c 4.005,0 7.832,1.257 11.067,3.634 4.633,3.404 7.236,8.556 7.58,13.889 l 0.054,-0.037 0,141.179 c 0,10.319 -8.394,18.712 -18.712,18.712"
             style="fill:#005184;fill-opacity:1;fill-rule:nonzero;stroke:none"
             id="path94"
             inkscape:connector-curvature="0" /></g><g
           id="g96"
           transform="translate(33.3979,110.4443)"
           style="fill:#005184;fill-opacity:1"><path
             d="M 0,0 C -0.047,-0.308 -0.199,-0.745 -0.653,-1.079 -0.942,-1.292 -1.27,-1.4 -1.624,-1.4 c -0.252,0 -0.889,0.066 -1.334,0.671 -0.538,0.734 -0.381,1.768 0.351,2.306 0.29,0.213 0.617,0.321 0.971,0.321 0.253,0 0.889,-0.065 1.335,-0.673 C 0.033,0.771 0.047,0.308 0,0 m -1.636,2.522 c -0.49,0 -0.941,-0.149 -1.341,-0.442 -1.008,-0.742 -1.225,-2.167 -0.484,-3.178 0.615,-0.836 1.489,-0.926 1.837,-0.926 0.49,0 0.941,0.149 1.341,0.443 0.626,0.461 0.835,1.063 0.899,1.487 0.066,0.425 0.046,1.063 -0.415,1.688 -0.614,0.838 -1.489,0.928 -1.837,0.928"
             style="fill:#005184;fill-opacity:1;fill-rule:nonzero;stroke:none"
             id="path98"
             inkscape:connector-curvature="0" /></g><g
           id="g100"
           transform="translate(91.4155,171.0088)"
           style="fill:#005184;fill-opacity:1"><path
             d="m 0,0 c 0.909,0 1.648,-0.74 1.648,-1.649 0,-0.91 -0.739,-1.649 -1.648,-1.649 -0.909,0 -1.649,0.739 -1.649,1.649 C -1.649,-0.74 -0.909,0 0,0 m 0,-3.922 c 1.253,0 2.272,1.02 2.272,2.273 0,1.253 -1.019,2.273 -2.272,2.273 -1.253,0 -2.273,-1.02 -2.273,-2.273 0,-1.253 1.02,-2.273 2.273,-2.273"
             style="fill:#005184;fill-opacity:1;fill-rule:nonzero;stroke:none"
             id="path102"
             inkscape:connector-curvature="0" /></g><g
           id="g104"
           transform="translate(91.4155,151.0439)"
           style="fill:#005184;fill-opacity:1"><path
             d="m 0,0 c 0.909,0 1.648,-0.74 1.648,-1.649 0,-0.91 -0.739,-1.649 -1.648,-1.649 -0.909,0 -1.649,0.739 -1.649,1.649 C -1.649,-0.74 -0.909,0 0,0 m 0,-3.922 c 1.253,0 2.272,1.02 2.272,2.273 0,1.253 -1.019,2.273 -2.272,2.273 -1.253,0 -2.273,-1.02 -2.273,-2.273 0,-1.253 1.02,-2.273 2.273,-2.273"
             style="fill:#005184;fill-opacity:1;fill-rule:nonzero;stroke:none"
             id="path106"
             inkscape:connector-curvature="0" /></g><g
           id="g108"
           transform="translate(27.4355,116.5908)"
           style="fill:#005184;fill-opacity:1"><path
             d="m 0,0 c 3.257,2.393 7.837,1.693 10.23,-1.564 2.393,-3.257 1.692,-7.837 -1.564,-10.23 -3.257,-2.394 -7.837,-1.693 -10.23,1.564 C -3.958,-6.973 -3.257,-2.393 0,0 m 22.051,-17.653 c 2.393,-3.257 1.693,-7.837 -1.565,-10.231 -3.257,-2.392 -7.837,-1.692 -10.23,1.565 -2.393,3.257 -1.692,7.838 1.565,10.23 3.257,2.393 7.837,1.693 10.23,-1.564 m 11.821,-16.089 c 2.393,-3.257 1.692,-7.838 -1.564,-10.231 -3.258,-2.392 -7.838,-1.692 -10.231,1.565 -2.392,3.257 -1.692,7.837 1.565,10.23 3.257,2.393 7.837,1.693 10.23,-1.564 m 11.821,-16.089 c 2.393,-3.258 1.692,-7.838 -1.565,-10.231 -3.256,-2.393 -7.837,-1.692 -10.23,1.565 -2.393,3.257 -1.692,7.837 1.565,10.23 3.257,2.393 7.837,1.693 10.23,-1.564 m 11.821,-16.09 c 2.393,-3.257 1.692,-7.837 -1.565,-10.229 -3.257,-2.394 -7.837,-1.693 -10.23,1.564 -2.393,3.257 -1.693,7.837 1.565,10.23 3.257,2.393 7.837,1.693 10.23,-1.565 m 15.63,-20.562 c 0,-5.294 -4.292,-9.586 -9.586,-9.586 -5.294,0 -9.585,4.292 -9.585,9.586 0,5.295 4.291,9.586 9.585,9.586 5.294,0 9.586,-4.291 9.586,-9.586 m -79.173,72.659 59.497,-80.751 c 4.265,-5.806 12.428,-7.054 18.234,-2.788 5.805,4.264 7.053,12.428 2.788,18.233 L 14.994,1.622 C 10.729,7.427 2.565,8.676 -3.24,4.411 -9.046,0.146 -10.294,-8.019 -6.029,-13.824"
             style="fill:#005184;fill-opacity:1;fill-rule:nonzero;stroke:none"
             id="path110"
             inkscape:connector-curvature="0" /></g><g
           id="g112"
           transform="translate(146.5659,41.9551)"
           style="fill:#005184;fill-opacity:1"><path
             d="m 0,0 8.098,11.801 c 1.809,2.614 2.152,6.201 0.869,9.142 l -6.126,15.31 c -1.06,2.929 -3.886,5.28 -7.052,5.862 l -14.338,2.667 -0.001,9.727 14.834,2.756 c 3.149,0.585 5.935,2.897 7.095,5.891 l 6.122,14.273 c 1.336,2.851 1.035,6.487 -0.803,9.186 l -8.697,12.676 6.874,6.872 12.964,-8.896 c 1.541,-1.054 3.447,-1.632 5.369,-1.632 1.325,0 2.644,0.275 3.816,0.795 l 13.878,5.677 c 2.928,1.094 5.259,3.87 5.864,7.043 l 2.894,15.562 9.722,0 2.894,-15.554 c 0.607,-3.192 2.962,-5.974 5.999,-7.102 l 13.84,-5.668 c 1.088,-0.483 2.397,-0.753 3.719,-0.753 1.941,0 3.857,0.586 5.394,1.65 l 12.939,8.878 6.875,-6.874 -8.689,-12.659 c -1.852,-2.695 -2.147,-6.359 -0.754,-9.333 l 6.122,-14.286 c 1.131,-2.883 3.904,-5.166 7.032,-5.744 l 14.838,-2.758 -0.001,-9.726 -14.33,-2.666 c -3.199,-0.58 -5.995,-2.944 -7.124,-6.03 l -6.133,-15.316 c -1.217,-2.78 -0.844,-6.375 0.937,-8.964 l 8.102,-11.809 -6.875,-6.874 -11.522,7.909 C 93.132,2.07 91.259,2.641 89.37,2.641 87.778,2.641 86.217,2.244 84.857,1.493 L 84.662,1.389 75.046,24.616 c 7.872,5.853 12.521,15.039 12.521,24.91 0,17.119 -13.928,31.047 -31.047,31.047 -17.119,0 -31.046,-13.928 -31.046,-31.047 0,-9.872 4.65,-19.057 12.52,-24.908 L 28.382,1.389 28.142,1.517 c -1.331,0.731 -2.885,1.124 -4.469,1.124 -1.889,0 -3.763,-0.572 -5.276,-1.61 L 6.877,-6.876 0,0 z"
             style="fill:#005184;fill-opacity:1;fill-rule:nonzero;stroke:none"
             id="path114"
             inkscape:connector-curvature="0" /></g><g
           id="g116"
           transform="translate(257.5605,57.9229)"
           style="fill:#005184;fill-opacity:1"><path
             d="m 0,0 11.56,-16.846 -15.51,-15.509 -16.558,11.362 c -0.293,0.202 -0.701,0.32 -1.117,0.32 -0.35,0 -0.689,-0.083 -0.96,-0.232 l -7.437,-3.975 -15.097,36.479 2.34,1.169 c 0.328,0.211 0.66,0.463 0.965,0.725 l 0.174,0.151 0.137,0.084 c 6.719,4.401 10.73,11.814 10.73,19.831 0,13.067 -10.633,23.7 -23.702,23.7 -13.068,0 -23.7,-10.633 -23.7,-23.7 0,-8.019 4.013,-15.433 10.732,-19.833 l 0.192,-0.125 0.117,-0.108 c 0.516,-0.441 0.917,-0.698 1.028,-0.767 l 2.187,-1.334 -0.974,-2.369 -14.029,-33.903 -7.393,3.949 c -0.315,0.172 -0.645,0.258 -1.006,0.258 -0.417,0 -0.826,-0.119 -1.123,-0.324 l -16.55,-11.358 -15.512,15.508 11.551,16.836 c 0.389,0.562 0.468,1.429 0.189,2.059 l -6.224,15.554 c -0.227,0.633 -0.88,1.197 -1.545,1.321 l -20.354,3.787 -10e-4,21.936 20.837,3.875 c 0.672,0.125 1.339,0.682 1.588,1.324 l 6.219,14.511 c 0.324,0.696 0.277,1.568 -0.124,2.158 L -120.505,84.2 -104.996,99.707 -87,87.358 c 0.319,-0.219 0.761,-0.346 1.213,-0.346 0.31,0 0.601,0.058 0.843,0.168 l 14.068,5.758 c 0.716,0.27 1.297,0.923 1.43,1.621 l 4.006,21.531 21.934,0 4.011,-21.557 c 0.124,-0.652 0.696,-1.321 1.333,-1.557 l 14.067,-5.757 c 0.321,-0.141 0.613,-0.207 0.935,-0.207 0.453,0 0.894,0.127 1.21,0.345 l 18,12.35 L 11.559,84.199 -0.582,66.505 C -0.97,65.942 -1.037,65.077 -0.743,64.449 L 5.479,49.939 C 5.76,49.225 6.412,48.649 7.097,48.522 L 27.942,44.646 27.941,22.71 7.61,18.926 C 6.936,18.805 6.273,18.24 6.038,17.586 L -0.188,2.032 C -0.46,1.419 -0.383,0.558 0,0 m 6.527,17.409 c 0.17,0.475 0.682,0.916 1.178,1.006 l 20.757,3.862 0.001,22.801 -21.272,3.955 c -0.483,0.09 -1.005,0.53 -1.234,1.111 L -0.272,64.67 c -0.214,0.456 -0.164,1.132 0.119,1.542 L 12.231,84.26 -3.889,100.38 -22.246,87.785 c -0.23,-0.159 -0.57,-0.252 -0.914,-0.252 -0.233,0 -0.456,0.043 -0.738,0.167 l -14.082,5.762 c -0.472,0.176 -0.915,0.695 -1.003,1.166 l -4.091,21.982 -22.799,0 -4.084,-21.954 c -0.094,-0.494 -0.537,-1.018 -1.116,-1.236 l -14.085,-5.766 c -0.175,-0.079 -0.397,-0.121 -0.628,-0.121 -0.344,0 -0.685,0.093 -0.92,0.254 l -18.352,12.593 -16.12,-16.119 12.378,-18.039 c 0.288,-0.424 0.341,-1.092 0.076,-1.66 l -6.226,-14.529 c -0.182,-0.471 -0.707,-0.91 -1.197,-1.001 l -21.263,-3.954 0.001,-22.801 20.779,-3.866 c 0.479,-0.089 0.987,-0.529 1.157,-1.003 l 6.231,-15.571 c 0.205,-0.461 0.146,-1.138 -0.142,-1.554 l -11.796,-17.192 16.124,-16.12 16.907,11.605 c 0.211,0.145 0.522,0.231 0.828,0.231 0.264,0 0.508,-0.058 0.76,-0.196 l 7.899,-4.219 14.25,34.433 1.142,2.779 -2.562,1.565 c -0.21,0.128 -0.571,0.383 -0.962,0.719 l -0.173,0.148 -0.191,0.125 c -6.573,4.305 -10.497,11.555 -10.497,19.398 0,12.781 10.399,23.18 23.18,23.18 12.783,0 23.181,-10.399 23.181,-23.18 0,-7.842 -3.922,-15.092 -10.491,-19.396 l -0.194,-0.126 -0.174,-0.149 c -0.284,-0.243 -0.602,-0.487 -0.86,-0.656 l -2.772,-1.385 15.502,-37.455 7.949,4.248 c 0.195,0.107 0.446,0.167 0.709,0.167 0.307,0 0.616,-0.086 0.824,-0.229 L -3.889,-33.029 12.232,-16.908 0.428,0.295 C 0.15,0.7 0.091,1.379 0.294,1.839 l 6.233,15.57 z"
             style="fill:#005184;fill-opacity:1;fill-rule:nonzero;stroke:none"
             id="path118"
             inkscape:connector-curvature="0" /></g></g></g><text
       xml:space="preserve"
       style="font-size:19.57848548999999849px;font-style:normal;font-weight:normal;line-height:125%;letter-spacing:0px;word-spacing:0px;fill:#000000;fill-opacity:1;stroke:none;font-family:Sans;-inkscape-font-specification:Sans"
       x="26.629927"
       y="72.913986"
       id="text3804"
       sodipodi:linespacing="125%"
       transform="scale(1,-1)"><tspan
         sodipodi:role="line"
         id="tspan3806"
         x="26.629927"
         y="72.913986"
         style="font-size:100.68934631000000479px;font-style:normal;font-variant:normal;font-weight:bold;font-stretch:normal;text-align:start;line-height:125%;writing-mode:lr-tb;text-anchor:start;fill:#000000;fill-opacity:1;font-family:Sans;-inkscape-font-specification:Sans Bold">VoLAB</tspan></text>
</g></svg>