<?xml version="1.0" encoding="UTF-8" standalone="no"?>
<!-- Created with Inkscape (http://www.inkscape.org/) -->

<svg
   xmlns:dc="http://purl.org/dc/elements/1.1/"
   xmlns:cc="http://creativecommons.org/ns#"
   xmlns:rdf="http://www.w3.org/1999/02/22-rdf-syntax-ns#"
   xmlns:svg="http://www.w3.org/2000/svg"
   xmlns="http://www.w3.org/2000/svg"
   xmlns:sodipodi="http://sodipodi.sourceforge.net/DTD/sodipodi-0.dtd"
   xmlns:inkscape="http://www.inkscape.org/namespaces/inkscape"
   width="797"
   height="90"
   id="svg2"
   sodipodi:version="0.32"
   inkscape:version="0.48.5 r10040"
   sodipodi:docname="jdhp_org_2.svg"
   version="1.0"
   inkscape:export-filename="/home/jeremie/git_pub/jdhp/jdhp_v2_xslt/medias/images/jdhp_org_2.png"
   inkscape:export-xdpi="90"
   inkscape:export-ydpi="90">
  <defs
     id="defs4" />
  <sodipodi:namedview
     id="base"
     pagecolor="#f4f4f4"
     bordercolor="#666666"
     borderopacity="1.0"
     inkscape:pageopacity="1"
     inkscape:pageshadow="2"
     inkscape:zoom="1.1371534"
     inkscape:cx="320.45432"
     inkscape:cy="42.502468"
     inkscape:document-units="px"
     inkscape:current-layer="layer1"
     showguides="true"
     inkscape:guide-bbox="true"
     inkscape:window-width="1920"
     inkscape:window-height="1027"
     inkscape:window-x="0"
     inkscape:window-y="31"
     showgrid="true"
     inkscape:grid-points="true"
     gridtolerance="10000"
     guidetolerance="10000"
     inkscape:guide-points="true"
     width="143px"
     height="37px"
     inkscape:window-maximized="1" />
  <metadata
     id="metadata7">
    <rdf:RDF>
      <cc:Work
         rdf:about="">
        <dc:format>image/svg+xml</dc:format>
        <dc:type
           rdf:resource="http://purl.org/dc/dcmitype/StillImage" />
        <dc:title></dc:title>
      </cc:Work>
    </rdf:RDF>
  </metadata>
  <g
     inkscape:label="Calque 1"
     inkscape:groupmode="layer"
     id="layer1"
     transform="translate(-332,-506.3622)">
    <g
       id="g2990"
       transform="translate(327,-26.49999)">
      <path
         inkscape:connector-curvature="0"
         inkscape:export-ydpi="98.181824"
         inkscape:export-xdpi="98.181824"
         inkscape:export-filename="/home/gremy/Desktop/jdhp.png"
         sodipodi:nodetypes="ccccccccccccc"
         id="path1990"
         d="m 347,564.36218 0,14 c 0,2 -1,3 -3,3 l -2,0 c -2,0 -3,-1 -3,-3.0747 l 0,-0.9253 c 0,-4 -5,-4 -5,0 l 0,2 c 0,4 3,7 7,7 l 4,0 c 4,0 7,-3 7,-7 l 0,-15 c 0,-4 -5,-4 -5,0 z"
         style="fill:#666666;fill-opacity:1;fill-rule:evenodd;stroke:none" />
      <path
         inkscape:connector-curvature="0"
         inkscape:export-ydpi="98.181824"
         inkscape:export-xdpi="98.181824"
         inkscape:export-filename="/home/gremy/Desktop/jdhp.png"
         sodipodi:nodetypes="cccccccccccccccc"
         id="path3763"
         d="m 397,591.36218 0,-14 c 0,-2 1,-3 3,-3 l 2,0 c 2,0 3,1 3,3.0747 l 0,0.9253 c 0,1.03065 -1,3 -3,3 -4,0 -4,4.99999 0,5 l 1,0 c 4,0 7,-3 7,-7 l 0,-3 c 0,-4 -3,-7 -7,-7 l -4,0 c -4,0 -7,3 -7,7 l 0,15 c 0,4 5,4 5,0 z"
         style="fill:#666666;fill-opacity:1;fill-rule:evenodd;stroke:none" />
      <path
         inkscape:connector-curvature="0"
         inkscape:export-ydpi="98.181824"
         inkscape:export-xdpi="98.181824"
         inkscape:export-filename="/home/gremy/Desktop/jdhp.png"
         sodipodi:nodetypes="cccccccccccccccc"
         id="path3765"
         d="m 367,564.36218 0,14 c 0,2 -1,3 -3,3 l -2,0 c -2,0 -3,-1 -3,-3.0747 l 0,-0.9253 c 0,-1.03065 1,-3 3,-3 4,0 4,-4.99999 0,-5 l -1,0 c -4,0 -7,3 -7,7 l 0,3 c 0,4 3,7 7,7 l 4,0 c 4,0 7,-3 7,-7 l 0,-15 c 0,-4 -5,-4 -5,0 z"
         style="fill:#666666;fill-opacity:1;fill-rule:evenodd;stroke:none" />
      <path
         inkscape:connector-curvature="0"
         inkscape:export-ydpi="98.181824"
         inkscape:export-xdpi="98.181824"
         inkscape:export-filename="/home/gremy/Desktop/jdhp.png"
         sodipodi:nodetypes="ccccccccccccc"
         id="path3767"
         d="m 379,564.36218 0,5.08523 6,-0.0852 c 3,0 5,2 5,5 l 0,9 c 0,4 -5,4 -5,0 l 0,-7 c 0,-2 0,-2 -2,-2 l -4,0 0,9 c 0,4 -5,4 -5,0 l 0,-19 c 0,-4 5,-4 5,0 z"
         style="fill:#666666;fill-opacity:1;fill-rule:evenodd;stroke:none" />
      <path
         inkscape:connector-curvature="0"
         inkscape:export-ydpi="98.181824"
         inkscape:export-xdpi="98.181824"
         inkscape:export-filename="/home/gremy/Desktop/jdhp.png"
         sodipodi:nodetypes="ccc"
         id="path4656"
         d="m 415,581.3622 c -4,0 -4,4.99999 0,5 4,0 4,-5 0,-5 z"
         style="fill:#666666;fill-opacity:1;fill-rule:evenodd;stroke:none" />
      <path
         inkscape:connector-curvature="0"
         inkscape:export-ydpi="98.181824"
         inkscape:export-xdpi="98.181824"
         inkscape:export-filename="/home/gremy/Desktop/jdhp.png"
         sodipodi:nodetypes="ccccccccc"
         id="path4658"
         d="m 445,583.3622 0,-6 c 0,-2 1,-3 3,-3 l 2,0 c 4,0 4,-5 0,-5 l -3,0 c -4,0 -7,3 -7,7 l 0,7 c 0,4 5,4 5,0 z"
         style="fill:#666666;fill-opacity:1;fill-rule:evenodd;stroke:none" />
      <path
         inkscape:connector-curvature="0"
         inkscape:export-ydpi="98.181824"
         inkscape:export-xdpi="98.181824"
         inkscape:export-filename="/home/gremy/Desktop/jdhp.png"
         sodipodi:nodetypes="cccccccccccccccccccc"
         id="path4660"
         d="m 458,589.3622 7,0 c 2,0 3,-1 3,-3 l 0,-9 c 0,-2 -1,-3 -3,-3 l -2,0 c -2,0 -3,1 -3,3.0747 l 0,0.9253 c 0,1.03065 1,3 3,3 4,0 4,4.99999 0,5 l -1,0 c -4,0 -7,-3 -7,-7 l 0,-3 c 0,-4 3,-7 7,-7 l 4,0 c 4,0 7,3 7,7 l 0,11 c 0,4 -3,7 -7,7 l -8,0 c -4,0 -4,-5 0,-5 z"
         style="fill:#666666;fill-opacity:1;fill-rule:evenodd;stroke:none" />
      <path
         inkscape:connector-curvature="0"
         inkscape:export-ydpi="98.181824"
         inkscape:export-xdpi="98.181824"
         inkscape:export-filename="/home/gremy/Desktop/jdhp.png"
         sodipodi:nodetypes="ccccccccsccccccccc"
         id="path4662"
         d="m 428,581.3622 c -2,0 -3,-1 -3,-3 l 0,-1 c 0,-2 1,-3 3,-3 l 2,0 c 2,0 3,1 3,3.0747 l 0,0.9253 c 0,2 -1,3 -3,3 l -2,0 z m -8,-2 c 0,4 3,7 7,7 l 4,0 c 4,0 7,-3 7,-7 l 0,-3 c 0,-4 -3,-7 -7,-7 l -4,0 c -4,0 -7,3 -7,7 l 0,3 z"
         style="fill:#666666;fill-opacity:1;fill-rule:evenodd;stroke:none" />
    </g>
  </g>
</svg>
