<?xml version="1.0" encoding="UTF-8" standalone="no"?>
<!-- Created with Inkscape (http://www.inkscape.org/) -->
<svg
   xmlns:dc="http://purl.org/dc/elements/1.1/"
   xmlns:cc="http://web.resource.org/cc/"
   xmlns:rdf="http://www.w3.org/1999/02/22-rdf-syntax-ns#"
   xmlns:svg="http://www.w3.org/2000/svg"
   xmlns="http://www.w3.org/2000/svg"
   xmlns:sodipodi="http://sodipodi.sourceforge.net/DTD/sodipodi-0.dtd"
   xmlns:inkscape="http://www.inkscape.org/namespaces/inkscape"
   width="143"
   height="37"
   id="svg2"
   sodipodi:version="0.32"
   inkscape:version="0.44.1"
   sodipodi:docbase="/home/gremy/Desktop"
   sodipodi:docname="jdhp_org.svg"
   version="1.0">
  <defs
     id="defs4" />
  <sodipodi:namedview
     id="base"
     pagecolor="#ffffff"
     bordercolor="#666666"
     borderopacity="1.0"
     inkscape:pageopacity="0.0"
     inkscape:pageshadow="2"
     inkscape:zoom="3.2163554"
     inkscape:cx="80.416385"
     inkscape:cy="35.853672"
     inkscape:document-units="px"
     inkscape:current-layer="layer1"
     showguides="true"
     inkscape:guide-bbox="true"
     inkscape:window-width="1023"
     inkscape:window-height="690"
     inkscape:window-x="0"
     inkscape:window-y="25"
     showgrid="true"
     inkscape:grid-points="true"
     gridtolerance="10000"
     guidetolerance="10000"
     inkscape:guide-points="true"
     width="143px"
     height="37px" />
  <metadata
     id="metadata7">
    <rdf:RDF>
      <cc:Work
         rdf:about="">
        <dc:format>image/svg+xml</dc:format>
        <dc:type
           rdf:resource="http://purl.org/dc/dcmitype/StillImage" />
      </cc:Work>
    </rdf:RDF>
  </metadata>
  <g
     inkscape:label="Calque 1"
     inkscape:groupmode="layer"
     id="layer1"
     transform="translate(-332,-559.3622)">
    <path
       style="fill:#666;fill-opacity:1;fill-rule:evenodd;stroke:none;stroke-width:0.1;stroke-linecap:butt;stroke-linejoin:miter;stroke-miterlimit:4;stroke-dasharray:none;stroke-opacity:1"
       d="M 347,564.36218 L 347,578.36218 C 347,580.36218 346,581.36218 344,581.36218 L 342,581.36218 C 340,581.36218 339,580.36218 339,578.28748 L 339,577.36218 C 339,573.36218 334,573.36218 334,577.36218 L 334,579.36218 C 334,583.36218 337,586.36218 341,586.36218 L 345,586.36218 C 349,586.36218 352,583.36218 352,579.36218 L 352,564.36218 C 352,560.36218 347,560.36218 347,564.36218 z "
       id="path1990"
       sodipodi:nodetypes="ccccccccccccc"
       inkscape:export-filename="/home/gremy/Desktop/jdhp.png"
       inkscape:export-xdpi="98.181824"
       inkscape:export-ydpi="98.181824" />
    <path
       style="fill:#666;fill-opacity:1;fill-rule:evenodd;stroke:none;stroke-width:0.1;stroke-linecap:butt;stroke-linejoin:miter;stroke-miterlimit:4;stroke-dasharray:none;stroke-opacity:1"
       d="M 397,591.36218 L 397,577.36218 C 397,575.36218 398,574.36218 400,574.36218 L 402,574.36218 C 404,574.36218 405,575.36218 405,577.43688 L 405,578.36218 C 405,579.39283 404,581.36218 402,581.36218 C 398,581.36218 398,586.36217 402,586.36218 L 403,586.36218 C 407,586.36218 410,583.36218 410,579.36218 L 410,576.36218 C 410,572.36218 407,569.36218 403,569.36218 L 399,569.36218 C 395,569.36218 392,572.36218 392,576.36218 L 392,591.36218 C 392,595.36218 397,595.36218 397,591.36218 z "
       id="path3763"
       sodipodi:nodetypes="cccccccccccccccc"
       inkscape:export-filename="/home/gremy/Desktop/jdhp.png"
       inkscape:export-xdpi="98.181824"
       inkscape:export-ydpi="98.181824" />
    <path
       style="fill:#666;fill-opacity:1;fill-rule:evenodd;stroke:none;stroke-width:0.1;stroke-linecap:butt;stroke-linejoin:miter;stroke-miterlimit:4;stroke-dasharray:none;stroke-opacity:1"
       d="M 367,564.36218 L 367,578.36218 C 367,580.36218 366,581.36218 364,581.36218 L 362,581.36218 C 360,581.36218 359,580.36218 359,578.28748 L 359,577.36218 C 359,576.33153 360,574.36218 362,574.36218 C 366,574.36218 366,569.36219 362,569.36218 L 361,569.36218 C 357,569.36218 354,572.36218 354,576.36218 L 354,579.36218 C 354,583.36218 357,586.36218 361,586.36218 L 365,586.36218 C 369,586.36218 372,583.36218 372,579.36218 L 372,564.36218 C 372,560.36218 367,560.36218 367,564.36218 z "
       id="path3765"
       sodipodi:nodetypes="cccccccccccccccc"
       inkscape:export-filename="/home/gremy/Desktop/jdhp.png"
       inkscape:export-xdpi="98.181824"
       inkscape:export-ydpi="98.181824" />
    <path
       style="fill:#666;fill-opacity:1;fill-rule:evenodd;stroke:none;stroke-width:0.1;stroke-linecap:butt;stroke-linejoin:miter;stroke-miterlimit:4;stroke-dasharray:none;stroke-opacity:1"
       d="M 379,564.36218 L 379,569.44741 L 385,569.36218 C 388,569.36218 390,571.36218 390,574.36218 L 390,583.36218 C 390,587.36218 385,587.36218 385,583.36218 L 385,576.36218 C 385,574.36218 385,574.36218 383,574.36218 L 379,574.36218 L 379,583.36218 C 379,587.36218 374,587.36218 374,583.36218 L 374,564.36218 C 374,560.36218 379,560.36218 379,564.36218 z "
       id="path3767"
       sodipodi:nodetypes="ccccccccccccc"
       inkscape:export-filename="/home/gremy/Desktop/jdhp.png"
       inkscape:export-xdpi="98.181824"
       inkscape:export-ydpi="98.181824" />
    <path
       style="fill:#666;fill-opacity:1;fill-rule:evenodd;stroke:none;stroke-width:0.1;stroke-linecap:butt;stroke-linejoin:miter;stroke-miterlimit:4;stroke-dasharray:none;stroke-opacity:1"
       d="M 415,581.3622 C 411,581.3622 411,586.36219 415,586.3622 C 419,586.3622 419,581.3622 415,581.3622 z "
       id="path4656"
       sodipodi:nodetypes="ccc"
       inkscape:export-filename="/home/gremy/Desktop/jdhp.png"
       inkscape:export-xdpi="98.181824"
       inkscape:export-ydpi="98.181824" />
    <path
       style="fill:#666;fill-opacity:1;fill-rule:evenodd;stroke:none;stroke-width:0.1;stroke-linecap:butt;stroke-linejoin:miter;stroke-miterlimit:4;stroke-dasharray:none;stroke-opacity:1"
       d="M 445,583.3622 L 445,577.3622 C 445,575.3622 446,574.3622 448,574.3622 L 450,574.3622 C 454,574.3622 454,569.3622 450,569.3622 L 447,569.3622 C 443,569.3622 440,572.3622 440,576.3622 L 440,583.3622 C 440,587.3622 445,587.3622 445,583.3622 z "
       id="path4658"
       sodipodi:nodetypes="ccccccccc"
       inkscape:export-filename="/home/gremy/Desktop/jdhp.png"
       inkscape:export-xdpi="98.181824"
       inkscape:export-ydpi="98.181824" />
    <path
       style="fill:#666;fill-opacity:1;fill-rule:evenodd;stroke:none;stroke-width:0.1;stroke-linecap:butt;stroke-linejoin:miter;stroke-miterlimit:4;stroke-dasharray:none;stroke-opacity:1"
       d="M 458,589.3622 L 465,589.3622 C 467,589.3622 468,588.3622 468,586.3622 L 468,577.3622 C 468,575.3622 467,574.3622 465,574.3622 L 463,574.3622 C 461,574.3622 460,575.3622 460,577.4369 L 460,578.3622 C 460,579.39285 461,581.3622 463,581.3622 C 467,581.3622 467,586.36219 463,586.3622 L 462,586.3622 C 458,586.3622 455,583.3622 455,579.3622 L 455,576.3622 C 455,572.3622 458,569.3622 462,569.3622 L 466,569.3622 C 470,569.3622 473,572.3622 473,576.3622 L 473,587.3622 C 473,591.3622 470,594.3622 466,594.3622 L 458,594.3622 C 454,594.3622 454,589.3622 458,589.3622 z "
       id="path4660"
       sodipodi:nodetypes="cccccccccccccccccccc"
       inkscape:export-filename="/home/gremy/Desktop/jdhp.png"
       inkscape:export-xdpi="98.181824"
       inkscape:export-ydpi="98.181824" />
    <path
       style="fill:#666;fill-opacity:1;fill-rule:evenodd;stroke:none;stroke-width:0.1;stroke-linecap:butt;stroke-linejoin:miter;stroke-miterlimit:4;stroke-dasharray:none;stroke-opacity:1"
       d="M 428,581.3622 C 426,581.3622 425,580.3622 425,578.3622 L 425,577.3622 C 425,575.3622 426,574.3622 428,574.3622 L 430,574.3622 C 432,574.3622 433,575.3622 433,577.4369 L 433,578.3622 C 433,580.3622 432,581.3622 430,581.3622 L 428,581.3622 z M 420,579.3622 C 420,583.3622 423,586.3622 427,586.3622 L 431,586.3622 C 435,586.3622 438,583.3622 438,579.3622 L 438,576.3622 C 438,572.3622 435,569.3622 431,569.3622 L 427,569.3622 C 423,569.3622 420,572.3622 420,576.3622 L 420,579.3622 z "
       id="path4662"
       sodipodi:nodetypes="ccccccccsccccccccc"
       inkscape:export-filename="/home/gremy/Desktop/jdhp.png"
       inkscape:export-xdpi="98.181824"
       inkscape:export-ydpi="98.181824" />
  </g>
</svg>
